<!--?xml version="1.0" standalone="no"?-->
              <svg id="sw-js-blob-svg" viewBox="0 0 100 100" xmlns="http://www.w3.org/2000/svg" version="1.1">
                    <defs> 
                        <linearGradient id="sw-gradient" x1="0" x2="1" y1="1" y2="0">
                            <stop id="stop1" stop-color="rgba(248, 117, 55, 1)" offset="0%"></stop>
                            <stop id="stop2" stop-color="rgba(251, 168, 31, 1)" offset="100%"></stop>
                        </linearGradient>
                    </defs>
                <path fill="url(#sw-gradient)" d="M22.1,-38C29.2,-34.1,36,-29.4,38.7,-23C41.3,-16.5,39.8,-8.2,39,-0.4C38.3,7.4,38.3,14.7,35.6,21.1C32.8,27.4,27.3,32.6,21,34.5C14.6,36.4,7.3,35,0.6,34C-6.1,32.9,-12.2,32.3,-19.3,30.8C-26.3,29.3,-34.3,26.9,-39.2,21.6C-44.1,16.3,-45.8,8.2,-44.2,0.9C-42.6,-6.3,-37.8,-12.7,-33.1,-18.2C-28.4,-23.8,-23.8,-28.5,-18.3,-33.3C-12.8,-38.1,-6.4,-42.9,0.5,-43.9C7.5,-44.8,14.9,-41.8,22.1,-38Z" width="100%" height="100%" transform="translate(50 50)" stroke-width="0" style="transition: all 0.3s ease 0s;"></path>
              </svg>