<?xml version="1.0" encoding="UTF-8"?>
<svg xmlns="http://www.w3.org/2000/svg" xmlns:xlink="http://www.w3.org/1999/xlink" viewBox="0 0 30 30" width="30px" height="30px">
<g id="surface429778">
<path style="fill-rule:nonzero;fill:rgb(0%,0%,0%);fill-opacity:1;stroke-width:14;stroke-linecap:butt;stroke-linejoin:round;stroke:rgb(80.000001%,80.000001%,80.000001%);stroke-opacity:1;stroke-miterlimit:10;" d="M 141.154278 28.957207 L 141.178489 28.981419 C 152.315877 30.724662 160.523647 40.336711 160.523647 51.595157 L 160.523647 120.404841 C 160.523647 131.687499 152.315877 141.299548 141.154278 143.042791 C 141.154278 143.042791 109.993805 149.071507 85.999999 149.071507 C 62.006193 149.071507 30.845721 143.042791 30.845721 143.042791 L 30.821509 143.018579 C 19.684122 141.275336 11.500563 131.687499 11.476351 120.404841 L 11.476351 51.595157 C 11.476351 40.167229 19.829392 30.773085 30.773085 29.029842 L 30.845721 28.957207 C 30.845721 28.957207 62.006193 22.928491 85.999999 22.928491 C 109.993805 22.928491 141.154278 28.957207 141.154278 28.957207 Z M 68.809684 112.390765 L 114.666665 85.999999 L 68.809684 59.609234 Z M 68.809684 112.390765 " transform="matrix(0.161337,0,0,0.161337,1.125,1.125)"/>
<path style=" stroke:none;fill-rule:nonzero;fill:rgb(0%,0%,0%);fill-opacity:1;" d="M 15 4.824219 C 11.128906 4.824219 6.101562 5.796875 6.101562 5.796875 L 6.089844 5.808594 C 4.324219 6.089844 2.976562 7.605469 2.976562 9.449219 L 2.976562 20.550781 C 2.980469 22.371094 4.300781 23.917969 6.097656 24.199219 L 6.101562 24.203125 C 6.101562 24.203125 11.128906 25.175781 15 25.175781 C 18.871094 25.175781 23.898438 24.203125 23.898438 24.203125 C 25.699219 23.921875 27.023438 22.371094 27.023438 20.550781 L 27.023438 9.449219 C 27.023438 7.632812 25.699219 6.082031 23.902344 5.800781 L 23.898438 5.796875 C 23.898438 5.796875 18.871094 4.824219 15 4.824219 Z M 12.226562 10.742188 L 19.625 15 L 12.226562 19.257812 Z M 12.226562 10.742188 "/>
</g>
</svg>
